999
dxfrw 0.6.3
  0
SECTION
  2
HEADER
  9
$ACADVER
  1
AC1021
  9
$DWGCODEPAGE
  3
ANSI_1252
  9
$INSBASE
 10
0
 20
0
 30
0
  9
$EXTMIN
 10
17.82807820983396
 20
21.11943555853202
 30
0
  9
$EXTMAX
 10
256.0227168929871
 20
265.5362873653933
 30
0
  9
$LIMMIN
 10
0
 20
0
  9
$LIMMAX
 10
420
 20
297
  9
$ORTHOMODE
 70
    0
  9
$REGENMODE
 70
    1
  9
$FILLMODE
 70
    1
  9
$QTEXTMODE
 70
    0
  9
$MIRRTEXT
 70
    0
  9
$LTSCALE
 40
1
  9
$ATTMODE
 70
    0
  9
$TEXTSIZE
 40
2.5
  9
$TRACEWID
 40
15.68
  9
$TEXTSTYLE
  7
STANDARD
  9
$CLAYER
  8
0
  9
$CELTYPE
  6
BYLAYER
  9
$CECOLOR
 62
  256
  9
$CELTSCALE
 40
1
  9
$DISPSILH
 70
    0
  9
$DIMSCALE
 40
2.5
  9
$DIMASZ
 40
2.5
  9
$DIMEXO
 40
0.625
  9
$DIMDLI
 40
3.75
  9
$DIMRND
 40
0
  9
$DIMDLE
 40
0
  9
$DIMEXE
 40
1.25
  9
$DIMTP
 40
0
  9
$DIMTM
 40
0
  9
$DIMTXT
 40
2.5
  9
$DIMCEN
 40
2.5
  9
$DIMTSZ
 40
0
  9
$DIMTOL
 70
    0
  9
$DIMLIM
 70
    0
  9
$DIMTIH
 70
    0
  9
$DIMTOH
 70
    0
  9
$DIMSE1
 70
    0
  9
$DIMSE2
 70
    0
  9
$DIMTAD
 70
    1
  9
$DIMZIN
 70
    8
  9
$DIMBLK
  1

  9
$DIMASO
 70
    1
  9
$DIMSHO
 70
    1
  9
$DIMPOST
  1

  9
$DIMAPOST
  1

  9
$DIMALT
 70
    0
  9
$DIMALTD
 70
    3
  9
$DIMALTF
 40
0.03937
  9
$DIMLFAC
 40
1
  9
$DIMTOFL
 70
    1
  9
$DIMTVP
 40
0
  9
$DIMTIX
 70
    0
  9
$DIMSOXD
 70
    0
  9
$DIMSAH
 70
    0
  9
$DIMBLK1
  1

  9
$DIMBLK2
  1

  9
$DIMSTYLE
  2
STANDARD
  9
$DIMCLRD
 70
    0
  9
$DIMCLRE
 70
    0
  9
$DIMCLRT
 70
    0
  9
$DIMTFAC
 40
1
  9
$DIMGAP
 40
0.625
  9
$DIMJUST
 70
    0
  9
$DIMSD1
 70
    0
  9
$DIMSD2
 70
    0
  9
$DIMTOLJ
 70
    0
  9
$DIMTZIN
 70
    8
  9
$DIMALTZ
 70
    0
  9
$DIMALTTZ
 70
    0
  9
$DIMUPT
 70
    0
  9
$DIMDEC
 70
    2
  9
$DIMTDEC
 70
    2
  9
$DIMALTU
 70
    2
  9
$DIMALTTD
 70
    3
  9
$DIMTXSTY
  7
STANDARD
  9
$DIMAUNIT
 70
    0
  9
$DIMADEC
 70
    0
  9
$DIMALTRND
 40
0
  9
$DIMAZIN
 70
    0
  9
$DIMDSEP
 70
   44
  9
$DIMATFIT
 70
    3
  9
$DIMFRAC
 70
    0
  9
$DIMLDRBLK
  1
STANDARD
  9
$DIMLUNIT
 70
    2
  9
$DIMLWD
 70
   -2
  9
$DIMLWE
 70
   -2
  9
$DIMTMOVE
 70
    0
  9
$DIMFXL
 40
1
  9
$DIMFXLON
 70
    0
  9
$DIMJOGANG
 40
0.7854
  9
$DIMTFILL
 70
    0
  9
$DIMTFILLCLR
 70
    0
  9
$DIMARCSYM
 70
    0
  9
$DIMLTYPE
  6

  9
$DIMLTEX1
  6

  9
$DIMLTEX2
  6

  9
$LUNITS
 70
    2
  9
$LUPREC
 70
    4
  9
$SKETCHINC
 40
1
  9
$FILLETRAD
 40
0
  9
$AUNITS
 70
    0
  9
$AUPREC
 70
    2
  9
$MENU
  1
.
  9
$ELEVATION
 40
0
  9
$PELEVATION
 40
0
  9
$THICKNESS
 40
0
  9
$LIMCHECK
 70
    0
  9
$CHAMFERA
 40
0
  9
$CHAMFERB
 40
0
  9
$CHAMFERC
 40
0
  9
$CHAMFERD
 40
0
  9
$SKPOLY
 70
    0
  9
$USRTIMER
 70
    1
  9
$ANGBASE
 50
0
  9
$ANGDIR
 70
    0
  9
$PDMODE
 70
   34
  9
$PDSIZE
 40
0
  9
$PLINEWID
 40
0
  9
$SPLFRAME
 70
    0
  9
$SPLINETYPE
 70
    2
  9
$SPLINESEGS
 70
    8
  9
$HANDSEED
  5
20000
  9
$SURFTAB1
 70
    6
  9
$SURFTAB2
 70
    6
  9
$SURFTYPE
 70
    6
  9
$SURFU
 70
    6
  9
$SURFV
 70
    6
  9
$UCSBASE
  2

  9
$UCSNAME
  2

  9
$UCSORG
 10
0
 20
0
 30
0
  9
$UCSXDIR
 10
1
 20
0
 30
0
  9
$UCSYDIR
 10
0
 20
1
 30
0
  9
$UCSORTHOREF
  2

  9
$UCSORTHOVIEW
 70
    0
  9
$UCSORGTOP
 10
0
 20
0
 30
0
  9
$UCSORGBOTTOM
 10
0
 20
0
 30
0
  9
$UCSORGLEFT
 10
0
 20
0
 30
0
  9
$UCSORGRIGHT
 10
0
 20
0
 30
0
  9
$UCSORGFRONT
 10
0
 20
0
 30
0
  9
$UCSORGBACK
 10
0
 20
0
 30
0
  9
$PUCSBASE
  2

  9
$PUCSNAME
  2

  9
$PUCSORG
 10
0
 20
0
 30
0
  9
$PUCSXDIR
 10
1
 20
0
 30
0
  9
$PUCSYDIR
 10
0
 20
1
 30
0
  9
$PUCSORTHOREF
  2

  9
$PUCSORTHOVIEW
 70
    0
  9
$PUCSORGTOP
 10
0
 20
0
 30
0
  9
$PUCSORGBOTTOM
 10
0
 20
0
 30
0
  9
$PUCSORGLEFT
 10
0
 20
0
 30
0
  9
$PUCSORGRIGHT
 10
0
 20
0
 30
0
  9
$PUCSORGFRONT
 10
0
 20
0
 30
0
  9
$PUCSORGBACK
 10
0
 20
0
 30
0
  9
$USERI1
 70
    0
  9
$USERI2
 70
    0
  9
$USERI3
 70
    0
  9
$USERI4
 70
    0
  9
$USERI5
 70
    0
  9
$USERR1
 40
0
  9
$USERR2
 40
0
  9
$USERR3
 40
0
  9
$USERR4
 40
0
  9
$USERR5
 40
0
  9
$WORLDVIEW
 70
    1
  9
$SHADEDGE
 70
    3
  9
$SHADEDIF
 70
   70
  9
$TILEMODE
 70
    1
  9
$MAXACTVP
 70
   64
  9
$PINSBASE
 10
0
 20
0
 30
0
  9
$PLIMCHECK
 70
    0
  9
$PEXTMIN
 10
0
 20
0
 30
0
  9
$PEXTMAX
 10
0
 20
0
 30
0
  9
$SNAPSTYLE
 70
    0
  9
$PLIMMIN
 10
0
 20
0
  9
$PLIMMAX
 10
304.8
 20
228.6
  9
$UNITMODE
 70
    0
  9
$VISRETAIN
 70
    1
  9
$PLINEGEN
 70
    0
  9
$PSLTSCALE
 70
    1
  9
$TREEDEPTH
 70
 3020
  9
$CMLSTYLE
  2
Standard
  9
$CMLJUST
 70
    0
  9
$CMLSCALE
 40
20
  9
$PROXYGRAPHICS
 70
    1
  9
$MEASUREMENT
 70
    1
  9
$CELWEIGHT
370
   -1
  9
$ENDCAPS
280
    0
  9
$JOINSTYLE
280
    0
  9
$LWDISPLAY
290
    0
  9
$INSUNITS
 70
    4
  9
$HYPERLINKBASE
  1

  9
$STYLESHEET
  1

  9
$XEDIT
290
    1
  9
$CEPSNTYPE
380
    0
  9
$PSTYLEMODE
290
    1
  9
$EXTNAMES
290
    1
  9
$PSVPSCALE
 40
1
  9
$OLESTARTUP
290
    0
  9
$SORTENTS
280
  127
  9
$INDEXCTL
280
    0
  9
$HIDETEXT
280
    1
  9
$XCLIPFRAME
290
    0
  9
$HALOGAP
280
    0
  9
$OBSCOLOR
 70
  257
  9
$OBSLTYPE
280
    0
  9
$INTERSECTIONDISPLAY
280
    0
  9
$INTERSECTIONCOLOR
 70
  257
  9
$DIMASSOC
280
    1
  9
$PROJECTNAME
  1

  9
$CAMERADISPLAY
290
    0
  9
$LENSLENGTH
 40
50
  9
$CAMERAHEIGHT
 40
0
  9
$STEPSPERSEC
 40
2
  9
$STEPSIZE
 40
50
  9
$3DDWFPREC
 40
2
  9
$PSOLWIDTH
 40
5
  9
$PSOLHEIGHT
 40
80
  9
$LOFTANG1
 40
1.570796326794897
  9
$LOFTANG2
 40
1.570796326794897
  9
$LOFTMAG1
 40
0
  9
$LOFTMAG2
 40
0
  9
$LOFTPARAM
 70
    7
  9
$LOFTNORMALS
280
    1
  9
$LATITUDE
 40
1
  9
$LONGITUDE
 40
1
  9
$NORTHDIRECTION
 40
0
  9
$TIMEZONE
 70
-8000
  9
$LIGHTGLYPHDISPLAY
280
    1
  9
$TILEMODELIGHTSYNCH
280
    1
  9
$SOLIDHIST
280
    1
  9
$SHOWHIST
280
    1
  9
$DWFFRAME
280
    2
  9
$DGNFRAME
280
    0
  9
$REALWORLDSCALE
290
    1
  9
$INTERFERECOLOR
 62
    1
  9
$CSHADOW
280
    0
  9
$SHADOWPLANELOCATION
 40
0
  0
ENDSEC
  0
SECTION
  2
CLASSES
  0
ENDSEC
  0
SECTION
  2
TABLES
  0
TABLE
  2
VPORT
  5
8
330
0
100
AcDbSymbolTable
 70
    1
  0
VPORT
  5
31
330
2
100
AcDbSymbolTableRecord
100
AcDbViewportTableRecord
  2
*ACTIVE
 70
    0
 10
0
 20
0
 11
1
 21
1
 12
557.870158264255
 22
279.8377816535907
 13
0
 23
0
 14
10
 24
10
 15
10
 25
10
 16
0
 26
0
 36
1
 17
0
 27
0
 37
0
 40
1083.243025755835
 41
1.525833333333333
 42
50
 43
0
 44
0
 50
0
 51
0
 71
    0
 72
  100
 73
    1
 74
    3
 75
    0
 76
    1
 77
    0
 78
    0
281
    0
 65
    1
110
0
120
0
130
0
111
1
121
0
131
0
112
0
122
1
132
0
 79
    0
146
0
348
10020
 60
    7
 61
    5
292
1
282
    1
141
0
142
0
 63
  250
421
3358443
  0
ENDTAB
  0
TABLE
  2
LTYPE
  5
5
330
0
100
AcDbSymbolTable
 70
    4
  0
LTYPE
  5
14
330
5
100
AcDbSymbolTableRecord
100
AcDbLinetypeTableRecord
  2
ByBlock
 70
    0
  3

 72
   65
 73
    0
 40
0
  0
LTYPE
  5
15
330
5
100
AcDbSymbolTableRecord
100
AcDbLinetypeTableRecord
  2
ByLayer
 70
    0
  3

 72
   65
 73
    0
 40
0
  0
LTYPE
  5
16
330
5
100
AcDbSymbolTableRecord
100
AcDbLinetypeTableRecord
  2
Continuous
 70
    0
  3
Solid line
 72
   65
 73
    0
 40
0
  0
LTYPE
  5
32
330
5
100
AcDbSymbolTableRecord
100
AcDbLinetypeTableRecord
  2
DOT
 70
    0
  3
Dot . . . . . . . . . . . . . . . . . . . . . .
 72
   65
 73
    2
 40
6.35
 49
0
 74
    0
 49
-6.35
 74
    0
  0
LTYPE
  5
33
330
5
100
AcDbSymbolTableRecord
100
AcDbLinetypeTableRecord
  2
DOTTINY
 70
    0
  3
Dot (.15x) .....................................
 72
   65
 73
    2
 40
0.9525
 49
0
 74
    0
 49
-0.9525
 74
    0
  0
LTYPE
  5
34
330
5
100
AcDbSymbolTableRecord
100
AcDbLinetypeTableRecord
  2
DOT2
 70
    0
  3
Dot (.5x) .....................................
 72
   65
 73
    2
 40
3.175
 49
0
 74
    0
 49
-3.175
 74
    0
  0
LTYPE
  5
35
330
5
100
AcDbSymbolTableRecord
100
AcDbLinetypeTableRecord
  2
DOTX2
 70
    0
  3
Dot (2x) .  .  .  .  .  .  .  .  .  .  .  .  .
 72
   65
 73
    2
 40
12.7
 49
0
 74
    0
 49
-12.7
 74
    0
  0
LTYPE
  5
36
330
5
100
AcDbSymbolTableRecord
100
AcDbLinetypeTableRecord
  2
DASHED
 70
    0
  3
Dashed _ _ _ _ _ _ _ _ _ _ _ _ _ _ _ _ _
 72
   65
 73
    2
 40
19.05
 49
12.7
 74
    0
 49
-6.35
 74
    0
  0
LTYPE
  5
37
330
5
100
AcDbSymbolTableRecord
100
AcDbLinetypeTableRecord
  2
DASHEDTINY
 70
    0
  3
Dashed (.15x) _ _ _ _ _ _ _ _ _ _ _ _ _ _ _ _ _
 72
   65
 73
    2
 40
2.8575
 49
1.905
 74
    0
 49
-0.9525
 74
    0
  0
LTYPE
  5
38
330
5
100
AcDbSymbolTableRecord
100
AcDbLinetypeTableRecord
  2
DASHED2
 70
    0
  3
Dashed (.5x) _ _ _ _ _ _ _ _ _ _ _ _ _ _ _ _ _
 72
   65
 73
    2
 40
9.524999999999999
 49
6.35
 74
    0
 49
-3.175
 74
    0
  0
LTYPE
  5
39
330
5
100
AcDbSymbolTableRecord
100
AcDbLinetypeTableRecord
  2
DASHEDX2
 70
    0
  3
Dashed (2x) ____  ____  ____  ____  ____  ___
 72
   65
 73
    2
 40
38.09999999999999
 49
25.4
 74
    0
 49
-12.7
 74
    0
  0
LTYPE
  5
3A
330
5
100
AcDbSymbolTableRecord
100
AcDbLinetypeTableRecord
  2
DASHDOT
 70
    0
  3
Dash dot __ . __ . __ . __ . __ . __ . __ . __
 72
   65
 73
    4
 40
25.4
 49
12.7
 74
    0
 49
-6.35
 74
    0
 49
0
 74
    0
 49
-6.35
 74
    0
  0
LTYPE
  5
3B
330
5
100
AcDbSymbolTableRecord
100
AcDbLinetypeTableRecord
  2
DASHDOTTINY
 70
    0
  3
Dash dot (.15x) _._._._._._._._._._._._._._._.
 72
   65
 73
    4
 40
3.81
 49
1.905
 74
    0
 49
-0.9525
 74
    0
 49
0
 74
    0
 49
-0.9525
 74
    0
  0
LTYPE
  5
3C
330
5
100
AcDbSymbolTableRecord
100
AcDbLinetypeTableRecord
  2
DASHDOT2
 70
    0
  3
Dash dot (.5x) _._._._._._._._._._._._._._._.
 72
   65
 73
    4
 40
12.7
 49
6.35
 74
    0
 49
-3.175
 74
    0
 49
0
 74
    0
 49
-3.175
 74
    0
  0
LTYPE
  5
3D
330
5
100
AcDbSymbolTableRecord
100
AcDbLinetypeTableRecord
  2
DASHDOTX2
 70
    0
  3
Dash dot (2x) ____  .  ____  .  ____  .  ___
 72
   65
 73
    4
 40
50.8
 49
25.4
 74
    0
 49
-12.7
 74
    0
 49
0
 74
    0
 49
-12.7
 74
    0
  0
LTYPE
  5
3E
330
5
100
AcDbSymbolTableRecord
100
AcDbLinetypeTableRecord
  2
DIVIDE
 70
    0
  3
Divide ____ . . ____ . . ____ . . ____ . . ____
 72
   65
 73
    6
 40
31.75
 49
12.7
 74
    0
 49
-6.35
 74
    0
 49
0
 74
    0
 49
-6.35
 74
    0
 49
0
 74
    0
 49
-6.35
 74
    0
  0
LTYPE
  5
3F
330
5
100
AcDbSymbolTableRecord
100
AcDbLinetypeTableRecord
  2
DIVIDETINY
 70
    0
  3
Divide (.15x) __..__..__..__..__..__..__..__.._
 72
   65
 73
    6
 40
4.7625
 49
1.905
 74
    0
 49
-0.9525
 74
    0
 49
0
 74
    0
 49
-0.9525
 74
    0
 49
0
 74
    0
 49
-0.9525
 74
    0
  0
LTYPE
  5
40
330
5
100
AcDbSymbolTableRecord
100
AcDbLinetypeTableRecord
  2
DIVIDE2
 70
    0
  3
Divide (.5x) __..__..__..__..__..__..__..__.._
 72
   65
 73
    6
 40
15.875
 49
6.35
 74
    0
 49
-3.175
 74
    0
 49
0
 74
    0
 49
-3.175
 74
    0
 49
0
 74
    0
 49
-3.175
 74
    0
  0
LTYPE
  5
41
330
5
100
AcDbSymbolTableRecord
100
AcDbLinetypeTableRecord
  2
DIVIDEX2
 70
    0
  3
Divide (2x) ________  .  .  ________  .  .  _
 72
   65
 73
    6
 40
63.5
 49
25.4
 74
    0
 49
-12.7
 74
    0
 49
0
 74
    0
 49
-12.7
 74
    0
 49
0
 74
    0
 49
-12.7
 74
    0
  0
LTYPE
  5
42
330
5
100
AcDbSymbolTableRecord
100
AcDbLinetypeTableRecord
  2
BORDER
 70
    0
  3
Border __ __ . __ __ . __ __ . __ __ . __ __ .
 72
   65
 73
    6
 40
44.45
 49
12.7
 74
    0
 49
-6.35
 74
    0
 49
12.7
 74
    0
 49
-6.35
 74
    0
 49
0
 74
    0
 49
-6.35
 74
    0
  0
LTYPE
  5
43
330
5
100
AcDbSymbolTableRecord
100
AcDbLinetypeTableRecord
  2
BORDERTINY
 70
    0
  3
Border (.15x) __.__.__.__.__.__.__.__.__.__.__.
 72
   65
 73
    6
 40
6.6675
 49
1.905
 74
    0
 49
-0.9525
 74
    0
 49
1.905
 74
    0
 49
-0.9525
 74
    0
 49
0
 74
    0
 49
-0.9525
 74
    0
  0
LTYPE
  5
44
330
5
100
AcDbSymbolTableRecord
100
AcDbLinetypeTableRecord
  2
BORDER2
 70
    0
  3
Border (.5x) __.__.__.__.__.__.__.__.__.__.__.
 72
   65
 73
    6
 40
22.225
 49
6.35
 74
    0
 49
-3.175
 74
    0
 49
6.35
 74
    0
 49
-3.175
 74
    0
 49
0
 74
    0
 49
-3.175
 74
    0
  0
LTYPE
  5
45
330
5
100
AcDbSymbolTableRecord
100
AcDbLinetypeTableRecord
  2
BORDERX2
 70
    0
  3
Border (2x) ____  ____  .  ____  ____  .  ___
 72
   65
 73
    6
 40
88.89999999999999
 49
25.4
 74
    0
 49
-12.7
 74
    0
 49
25.4
 74
    0
 49
-12.7
 74
    0
 49
0
 74
    0
 49
-12.7
 74
    0
  0
LTYPE
  5
46
330
5
100
AcDbSymbolTableRecord
100
AcDbLinetypeTableRecord
  2
CENTER
 70
    0
  3
Center ____ _ ____ _ ____ _ ____ _ ____ _ ____
 72
   65
 73
    4
 40
50.8
 49
31.75
 74
    0
 49
-6.35
 74
    0
 49
6.35
 74
    0
 49
-6.35
 74
    0
  0
LTYPE
  5
47
330
5
100
AcDbSymbolTableRecord
100
AcDbLinetypeTableRecord
  2
CENTERTINY
 70
    0
  3
Center (.15x) ___ _ ___ _ ___ _ ___ _ ___ _ ___
 72
   65
 73
    4
 40
7.62
 49
4.7625
 74
    0
 49
-0.9525
 74
    0
 49
0.9525
 74
    0
 49
-0.9525
 74
    0
  0
LTYPE
  5
48
330
5
100
AcDbSymbolTableRecord
100
AcDbLinetypeTableRecord
  2
CENTER2
 70
    0
  3
Center (.5x) ___ _ ___ _ ___ _ ___ _ ___ _ ___
 72
   65
 73
    4
 40
28.575
 49
19.05
 74
    0
 49
-3.175
 74
    0
 49
3.175
 74
    0
 49
-3.175
 74
    0
  0
LTYPE
  5
49
330
5
100
AcDbSymbolTableRecord
100
AcDbLinetypeTableRecord
  2
CENTERX2
 70
    0
  3
Center (2x) ________  __  ________  __  _____
 72
   65
 73
    4
 40
101.6
 49
63.5
 74
    0
 49
-12.7
 74
    0
 49
12.7
 74
    0
 49
-12.7
 74
    0
  0
ENDTAB
  0
TABLE
  2
LAYER
  5
2
330
0
100
AcDbSymbolTable
 70
    1
  0
LAYER
  5
10
330
2
100
AcDbSymbolTableRecord
100
AcDbLayerTableRecord
  2
0
 70
    0
 62
    7
  6
CONTINUOUS
370
    0
390
F
  0
ENDTAB
  0
TABLE
  2
STYLE
  5
3
330
0
100
AcDbSymbolTable
 70
    3
  0
STYLE
  5
4A
330
2
100
AcDbSymbolTableRecord
100
AcDbTextStyleTableRecord
  2
Standard
 70
    0
 40
0
 41
1
 50
0
 71
    0
 42
1
  3
txt
  4

  0
ENDTAB
  0
TABLE
  2
VIEW
  5
6
330
0
100
AcDbSymbolTable
 70
    0
  0
ENDTAB
  0
TABLE
  2
UCS
  5
7
330
0
100
AcDbSymbolTable
 70
    0
  0
ENDTAB
  0
TABLE
  2
APPID
  5
9
330
0
100
AcDbSymbolTable
 70
    1
  0
APPID
  5
12
330
9
100
AcDbSymbolTableRecord
100
AcDbRegAppTableRecord
  2
ACAD
 70
    0
  0
APPID
  5
4B
330
9
100
AcDbSymbolTableRecord
100
AcDbRegAppTableRecord
  2
LibreCad
 70
    0
  0
ENDTAB
  0
TABLE
  2
DIMSTYLE
  5
A
330
0
100
AcDbSymbolTable
 70
    1
100
AcDbDimStyleTable
 71
    1
  0
DIMSTYLE
105
4C
330
A
100
AcDbSymbolTableRecord
100
AcDbDimStyleTableRecord
  2
Standard
 70
    0
 40
1
 41
2.5
 42
0.625
 43
0.38
 44
1.25
 45
0
 46
0
 47
0
 48
0
 49
1
140
2.5
141
0.09
142
2.5
143
25.4
144
1
145
0
146
1
147
0.625
148
0
 71
    0
 72
    0
 73
    0
 74
    1
 75
    0
 76
    0
 77
    0
 78
    1
 79
    0
170
    0
171
    2
172
    0
173
    0
174
    0
175
    0
176
    0
177
    0
178
    0
179
    0
271
    2
272
    4
273
    2
274
    2
275
    0
276
    0
277
    2
278
    0
279
    0
280
    0
281
    0
282
    0
283
    1
284
    0
285
    0
286
    0
288
    0
289
    3
340
standard
341

371
   -2
372
   -2
  0
ENDTAB
  0
TABLE
  2
BLOCK_RECORD
  5
1
330
0
100
AcDbSymbolTable
 70
    2
  0
BLOCK_RECORD
  5
1F
330
1
100
AcDbSymbolTableRecord
100
AcDbBlockTableRecord
  2
*Model_Space
 70
    0
280
    1
281
    0
  0
BLOCK_RECORD
  5
1E
330
1
100
AcDbSymbolTableRecord
100
AcDbBlockTableRecord
  2
*Paper_Space
 70
    0
280
    1
281
    0
  0
BLOCK_RECORD
  5
4D
330
1
100
AcDbSymbolTableRecord
100
AcDbBlockTableRecord
  2
Spiral
 70
    0
280
    1
281
    0
  0
ENDTAB
  0
ENDSEC
  0
SECTION
  2
BLOCKS
  0
BLOCK
  5
20
330
1F
100
AcDbEntity
  8
0
100
AcDbBlockBegin
  2
*Model_Space
 70
    0
 10
0
 20
0
 30
0
  3
*Model_Space
  1

  0
ENDBLK
  5
21
330
1F
100
AcDbEntity
  8
0
100
AcDbBlockEnd
  0
BLOCK
  5
1C
330
1B
100
AcDbEntity
  8
0
100
AcDbBlockBegin
  2
*Paper_Space
 70
    0
 10
0
 20
0
 30
0
  3
*Paper_Space
  1

  0
ENDBLK
  5
1D
330
1F
100
AcDbEntity
  8
0
100
AcDbBlockEnd
  0
BLOCK
  5
4E
330
4D
100
AcDbEntity
  8
0
100
AcDbBlockBegin
  2
Spiral
 70
    0
 10
0
 20
0
  3
Spiral
  1

  0
ENDBLK
  5
4F
330
4D
100
AcDbEntity
  8
0
100
AcDbBlockEnd
  0
ENDSEC
  0
SECTION
  2
ENTITIES
  0
LWPOLYLINE
  5
50
100
AcDbEntity
  8
0
  6
ByLayer
 62
  256
370
   -1
100
AcDbPolyline
 90
  315
 70
    0
 43
0
 10
140
 20
140
 10
140.0794677323181
 20
140.3920266311365
 10
140.3115346738469
 20
140.7368487952023
 10
140.6775709680741
 20
140.9904027378916
 10
141.1477697454392
 20
141.1147307349555
 10
141.6829419696158
 20
141.0806046117363
 10
142.2368938063213
 20
140.869658610744
 10
142.7592592439677
 20
140.4759080001207
 10
143.1986355297328
 20
139.9065615286359
 10
143.5058514711615
 20
139.1820724591049
 10
143.6371897073028
 20
138.3354126538114
 10
143.5573841768062
 20
137.4105950840765
 10
143.2422232666455
 20
136.460510165402
 10
142.6806071334716
 20
135.5441784824815
 10
141.8759336408731
 20
134.7235548922555
 10
140.8467200483592
 20
134.0600450203973
 10
139.6264054820635
 20
133.6109134349136
 10
138.2623205062175
 20
133.4257722904597
 10
136.813852808277
 20
133.5433394023941
 10
135.3498800288353
 20
133.9886453894504
 10
133.9455800375366
 20
134.7708510330911
 10
132.6787635117259
 20
135.8818091007381
 10
131.6259017497723
 20
137.2954707441899
 10
130.8580427665721
 20
138.9681967521975
 10
130.4368197551759
 20
140.8399902410187
 10
130.4107572533686
 20
142.8366218546323
 10
130.8120715805104
 20
144.8725733815239
 10
131.6541435343954
 20
146.8546830601805
 10
132.92981365583
 20
148.6863378393148
 10
134.6106147188004
 20
150.2720263965193
 10
136.6470140216129
 20
151.5220434398044
 10
138.9696914050631
 20
152.3571220030879
 10
141.4918298220863
 20
152.7127669601049
 10
144.1123459983766
 20
152.5430702138526
 10
146.7199415754851
 20
151.8238058687576
 10
149.1978123820631
 20
150.5546315608062
 10
151.4288172394279
 20
148.7602589292644
 10
153.3008798180121
 20
146.4905004481009
 10
154.7123790148786
 20
143.8191496072502
 10
155.5772761878438
 20
140.8417045607773
 10
155.8297319459741
 20
137.6719994590621
 10
155.4279811295482
 20
134.437860279865
 10
154.3572616558831
 20
131.2759506108397
 10
152.6316300834347
 20
128.3260151860958
 10
150.294542594895
 20
125.7247629525149
 10
147.4181327343516
 20
123.5996552860758
 10
144.1011744194445
 20
122.0628773661634
 10
140.4657779985232
 20
121.2057708097381
 10
136.6529258005188
 20
121.0939931687528
 10
132.8170090666623
 20
121.7636450667468
 10
129.1195777822127
 20
123.2185694184709
 10
125.7225563730918
 20
125.4289806986451
 10
122.7812094430185
 20
128.3315274455136
 10
120.4371610618086
 20
131.8308303556371
 10
118.8117774305638
 20
135.8024740205646
 10
118.0002154558845
 20
140.097365355737
 10
118.0664188670105
 20
144.5473089495399
 10
119.0393096148453
 20
148.9715917527317
 10
120.9103765967259
 20
153.1843194106168
 10
123.6328079992597
 20
157.0022065041836
 10
127.1222499679893
 20
160.2524950095797
 10
131.2592055134211
 20
162.780660915421
 10
135.8930164488816
 20
164.4575690965158
 10
140.8473007899723
 20
165.1857515546253
 10
145.9266515225991
 20
164.9045136818544
 10
150.9243429574923
 20
163.5936163177052
 10
155.6307407882704
 20
161.2753364817081
 10
159.8420738507253
 20
158.0147746392333
 10
163.3692013640965
 20
153.918348594726
 10
166.0460004766571
 20
149.1304906313941
 10
167.7370059594563
 20
143.8286421098198
 10
168.3439569371446
 20
138.2167150689566
 10
167.8109439646193
 20
132.5172601410444
 10
166.127902226503
 20
126.9626411707624
 10
163.3322611943097
 20
121.7855665045408
 10
159.508635204714
 20
117.2093626142358
 10
154.7865201411561
 20
113.4383957164635
 10
149.3360453877683
 20
110.6490501598751
 10
143.3619139517434
 20
108.9816580942651
 10
137.0957435328061
 20
108.5337435596041
 10
130.7870938667187
 20
109.3548966296515
 10
124.6935276406904
 20
111.4435313122633
 10
119.070100818988
 20
114.7457068942196
 10
114.1587109926619
 20
119.1561092298193
 10
110.1777476716619
 20
124.5211994629774
 10
107.3124852760954
 20
130.6444465062448
 10
105.7066377281692
 20
137.2934701012237
 10
105.4554535596219
 20
144.2088372775099
 10
106.6006736732817
 20
151.1141801731563
 10
109.1276024103128
 20
157.7272408192666
 10
112.964459116219
 20
163.771401496786
 10
117.9840852644104
 20
168.9872299186252
 10
124.0079851077532
 20
173.1435583437589
 10
130.8125797833964
 20
176.0476255773323
 10
138.1374599029721
 20
177.553840607679
 10
145.6953339671908
 20
177.5707754910936
 10
153.1832932666827
 20
176.0660613131602
 10
160.2949516881174
 20
173.0689421659807
 10
166.7329739066697
 20
168.6703349493044
 10
172.2214800052804
 20
163.0203437478529
 10
176.5178100291044
 20
156.3232824725371
 10
179.4231489177854
 20
148.8303640585261
 10
180.7915503258208
 20
140.8303144079343
 10
180.5369558182872
 20
132.6382601929827
 10
178.6378817376138
 20
124.5833176451558
 10
175.1395368185152
 20
116.9953710705823
 10
170.1532358512148
 20
110.191572203469
 10
163.8530842905574
 20
104.4631125472762
 10
156.4700212394952
 20
100.0628193237108
 10
148.283419064683
 20
97.19410124061361
 10
139.6105423912243
 20
96.00172363863604
 10
130.7942629250619
 20
96.56482525755074
 10
122.1895053961617
 20
98.89250333617188
 10
114.1489603890496
 20
102.9221932817883
 10
107.0086391243841
 20
108.5209576452067
 10
101.0738614079435
 20
115.4896810646618
 10
96.6062599349743
 20
123.5700479864068
 10
93.81235187995412
 20
132.4540632696257
 10
92.83417317115118
 20
141.7957671204906
 10
93.74239398259161
 20
151.2246997972424
 10
96.53223862368105
 20
160.3605923521735
 10
101.1224228280111
 20
168.828700859318
 10
107.3572007655505
 20
176.2751658595714
 10
115.011487752779
 20
182.3817679630106
 10
123.7988977452031
 20
186.8794655017483
 10
133.3824124951086
 20
189.5601405931732
 10
143.387286855281
 20
190.2860446621131
 10
153.4156968863282
 20
188.9965210709306
 10
163.0625584268971
 20
185.7116877702623
 10
171.9318871413915
 20
180.5328827446238
 10
179.6530394249372
 20
173.6398047610916
 10
185.896168582089
 20
165.2844163366382
 10
190.3862529892133
 20
155.7818094560471
 10
192.9151019703005
 20
145.4983618899346
 10
193.3508192232598
 20
134.8376276570707
 10
191.6443001338441
 20
124.2245043283762
 10
187.832454553801
 20
114.0882981771063
 10
182.0379761244292
 20
104.8453621358162
 10
174.4656178749876
 20
96.88200857536012
 10
165.3950760512204
 20
90.53839759618864
 10
155.1707241452443
 20
86.09407148644144
 10
144.1885711309617
 20
83.7557480991981
 10
132.8809364377267
 20
83.64790213313886
 10
121.6994341802278
 20
85.80655675567229
 10
111.0969362612185
 20
90.17658274955519
 10
101.5092347156511
 20
96.61266327803534
 10
93.33714564628116
 20
104.8839349646973
 10
86.92978903724304
 20
114.6821661991304
 10
82.56974056453583
 20
125.6331875081749
 10
80.46068442516216
 20
137.3111524997027
 10
80.71810255442776
 20
149.2550869932506
 10
83.36341888586159
 20
160.9870836397438
 10
88.32188201053458
 20
172.0314239625227
 10
95.42432100870332
 20
181.9338627181524
 10
104.4127532621391
 20
190.2802930542234
 10
114.9496659899656
 20
196.7140261838788
 10
126.6306414855319
 20
200.9509659719319
 10
138.9998558287087
 20
202.7920354156211
 10
151.567858071568
 20
202.1323157433878
 10
163.8309367681009
 20
198.9664858436956
 10
175.2913075994637
 20
193.3902950724194
 10
185.4773130424095
 20
185.5979604636289
 10
193.9628146479412
 20
175.8755436930498
 10
200.3849813483684
 20
164.590527191526
 10
204.4597327550865
 20
152.1779658869125
 10
205.9941827670796
 20
139.1237346832828
 10
204.8955428228468
 20
125.9455159565342
 10
201.1760814731083
 20
113.1722707707939
 10
194.9538923041792
 20
101.3230078648733
 10
186.4493894834434
 20
90.88570252344681
 10
175.9776226561648
 20
82.29722131464899
 10
163.9366736366393
 20
75.92507779783887
 10
150.792559339334
 20
72.0517795456942
 10
137.0612119975904
 20
70.8624304370129
 10
123.2882327824202
 20
72.43612772742068
 10
110.0272131352722
 20
76.74154564359333
 10
97.81748517531818
 20
83.63693192288511
 10
87.16219536434164
 20
92.874567362368
 10
78.50759250106287
 20
104.109558097111
 10
72.22438180599755
 20
116.9126532832204
 10
68.59192255209598
 20
130.7866143468248
 10
67.78594003635578
 20
145.1855128547899
 10
69.87028765830985
 20
159.5362086104695
 10
74.79313665357307
 20
173.2611631263911
 10
82.38779580267121
 20
185.8016804006718
 10
92.37817813158125
 20
196.6406398439547
 10
104.388743657021
 20
205.3237967487702
 10
117.9585642077802
 20
211.4787738298402
 10
132.5589857522177
 20
214.8309515305285
 10
147.614212532633
 20
215.2155819462157
 10
162.5240119819133
 20
212.5855969475944
 10
176.687645225483
 20
207.0147497780085
 10
189.5280690901662
 20
198.695914442146
 10
200.5154346980286
 20
187.9345612612512
 10
209.1889261480163
 20
175.137622265662
 10
215.1760401301592
 20
160.7981487240741
 10
218.208501642372
 20
145.4763373576777
 10
218.1341388348741
 20
129.7776544505373
 10
214.9241965440506
 20
114.3289117443673
 10
208.6757472373789
 20
99.75323936777461
 10
199.6090528383464
 20
86.64495506781732
 10
188.0599334991807
 20
75.54534313135831
 10
174.467401710639
 20
66.92032964416536
 10
159.3570139860072
 20
61.1409738232488
 10
143.3205697997455
 20
58.46759039372729
 10
126.9929411580104
 20
59.0381792430467
 10
111.026939679331
 20
62.86167116371466
 10
96.0672160822796
 20
69.81630889416755
 10
82.72423561414274
 20
79.65327834906205
 10
71.54937987019306
 20
92.00549402436891
 10
63.01218997508477
 20
106.4012335409828
 10
57.48068926470111
 20
122.2821176273459
 10
55.20560814125326
 20
139.024751669919
 10
56.30918398861124
 20
155.9651907394774
 10
60.77903066973627
 20
172.4252682081959
 10
68.4673721339438
 20
187.739743930779
 10
79.09572092741323
 20
201.2831852195077
 10
92.26486344216738
 20
212.4954946034931
 10
107.4697983610784
 20
220.9050429907254
 10
124.1190716978221
 20
226.1484539400511
 10
141.5577694092839
 20
227.9862111609968
 10
159.0932743310464
 20
226.3134223358073
 10
176.0227746381214
 20
221.1652617033368
 10
191.6614313015558
 20
212.7168241597133
 10
205.3700756704059
 20
201.2773466041525
 10
216.5813172080755
 20
187.2789789935882
 10
224.8229955893567
 20
171.2605089409629
 10
229.7380090267863
 20
153.8466507108562
 10
231.0996882759457
 20
135.7236936469
 10
228.8220580587296
 20
117.6124587725292
 10
222.9645279836861
 20
100.2396290705909
 10
213.7307755851649
 20
84.30859373646516
 10
201.4618161171151
 20
70.47097613524281
 10
186.6234879544347
 20
59.29999770159402
 10
169.7888094391816
 20
51.26676590929321
 10
151.6158735380392
 20
46.72046589981096
 10
132.8221321160794
 20
45.87328640263154
 10
114.1560742864242
 20
48.79072687653284
 10
96.36741673237233
 20
55.38772147380978
 10
80.17699321495957
 20
65.43078477550499
 10
66.24755251291904
 20
78.54614341096712
 10
55.15664751485423
 20
94.23357629133162
 10
47.37272376641232
 20
111.8854539864735
 10
43.23539607828661
 20
130.8102541997076
 10
42.9407412827606
 20
150.2596441098142
 10
46.53224002957609
 20
169.4580692868911
 10
53.8977782274456
 20
187.6336793228271
 10
64.77287811070238
 20
204.049357001088
 10
78.75007949646914
 20
218.0326036878894
 10
95.29414358188524
 20
229.0030696207888
 10
113.7625146296235
 20
236.4966028492161
 10
133.4302587460021
 20
240.1848217039666
 10
153.5185125467
 20
239.8893879174599
 10
173.2253255777791
 20
235.5903642646614
 10
191.7576752104359
 20
227.4282737837772
 10
208.3633759360384
 20
215.6997280749935
 10
222.3615992182811
 20
200.8467499066902
 10
233.1707659395985
 20
183.4401700529433
 10
240.3326695594334
 20
164.1577196580642
 10
243.5318308976249
 20
143.7576576461522
 10
242.6092695722075
 20
123.0489587972261
 10
237.5700954557435
 20
102.8592343541872
 10
228.5845675332703
 20
84.001657212525
 10
215.9825276137601
 20
67.24221349282074
 10
200.2413821120889
 20
53.26859922020522
 10
181.9680659192538
 20
42.66202466150607
 10
161.8756676748147
 20
35.87308146410382
 10
140.7556155535691
 20
33.20267304311733
 10
119.4465079379647
 20
34.78881255277103
 10
98.80081635324828
 20
40.59986284294511
 10
79.65078272400484
 20
50.43453805079314
 10
62.77487520097418
 20
63.92871698350953
 10
48.86615442238909
 20
80.56884495286779
 10
38.5038352142563
 20
99.71143420540685
 10
32.12920969360397
 20
120.6079243330261
 10
30.02693093055191
 20
142.4339431888417
 10
32.3124481174986
 20
164.3218249634702
 10
38.9261426680275
 20
185.3951028640334
 10
49.63444930505892
 20
204.8036052052673
 10
64.03796750546508
 20
221.7577495978169
 10
81.58628776629004
 20
235.5606520649448
 10
101.5989853330023
 20
245.6367458441671
 10
123.2919822841407
 20
251.5557355943954
 10
145.808257469581
 20
253.0508918371154
 10
168.2517018719908
 20
250.0309108447997
 10
189.72278209828
 20
242.5848182744751
 10
209.3545926638781
 20
230.979670676628
 10
226.347852175371
 20
215.6510966523315
 10
240.0034308662409
 20
197.1870073966203
 10
249.7510862953935
 20
176.305083073603
 10
255.1732271778108
 20
153.8248957120304
 10
256.0227168929871
 20
130.6357507097525
 10
252.2339608368396
 20
107.6615084632123
 10
243.9267863719911
 20
85.82377759209609
 10
231.4029102674626
 20
66.00494614747338
 10
215.1350848423915
 20
49.01253368882738
 10
195.7493086936149
 20
35.54630413343826
 10
174.0007690353077
 20
26.16947814839905
 10
150.7444389162425
 20
21.28522824696465
 10
126.9014734386601
 20
21.11943555853202
 10
103.4227254676981
 20
25.7104423501921
 10
81.25082580650675
 20
34.90625836148595
 10
61.28234007203847
 20
48.36938276173214
 10
44.33152145872532
 20
65.58909882552275
 10
31.09712454564169
 20
85.90079743866198
 10
22.13363205896513
 20
108.5116004155697
 10
17.82807820983396
 20
132.5312968931872
 10
18.38343529277392
 20
157.0073863016412
 10
23.80927305374593
 20
180.9628486765897
 10
33.92011299373797
 20
203.4351446182544
 10
48.34159361552435
 20
223.5148881281564
 10
66.52424982881206
 20
240.3826386223302
 10
87.76440282813968
 20
253.3423239046178
 10
111.2313681172433
 20
261.8499315535081
 10
135.9999306864049
 20
265.5362873653933
  0
ENDSEC
  0
SECTION
  2
OBJECTS
  0
DICTIONARY
  5
C
330
0
100
AcDbDictionary
281
    1
  3
ACAD_GROUP
350
D
  0
DICTIONARY
  5
D
330
C
100
AcDbDictionary
281
    1
  0
PLOTSETTINGS
  5
51
100
AcDbPlotSettings
  6
1x1
 40
0
 41
0
 42
0
 43
0
  0
ENDSEC
  0
EOF
